<?xml version="1.0" standalone="no"?>
<!DOCTYPE svg PUBLIC "-//W3C//DTD SVG 20010904//EN"
 "http://www.w3.org/TR/2001/REC-SVG-20010904/DTD/svg10.dtd">
<svg version="1.0" xmlns="http://www.w3.org/2000/svg"
 width="960.000000pt" height="960.000000pt" viewBox="0 0 960.000000 960.000000"
 preserveAspectRatio="xMidYMid meet">
<metadata>
Created by potrace 1.15, written by Peter Selinger 2001-2017
</metadata>
<g transform="translate(0.000000,960.000000) scale(0.100000,-0.100000)"
fill="#000000" stroke="none">
<path d="M3541 7240 c-63 -13 -232 -75 -321 -117 -82 -39 -171 -104 -211 -155
-109 -141 -203 -421 -229 -688 -21 -218 -27 -245 -73 -326 -30 -55 -62 -94
-112 -138 -78 -69 -184 -147 -260 -191 -27 -15 -63 -38 -80 -51 -32 -23 -183
-64 -240 -64 -48 0 -53 18 -8 25 100 17 188 36 212 48 26 12 26 13 26 132 0
350 -34 516 -123 603 -29 27 -53 42 -70 42 -40 0 -21 9 30 14 63 5 127 46 196
124 67 76 108 151 145 267 29 92 43 158 27 135 -5 -8 -10 -22 -10 -30 0 -8
-23 -61 -51 -118 -65 -130 -128 -201 -222 -248 -105 -53 -109 -41 -18 60 86
97 160 227 186 326 17 63 20 196 5 205 -6 4 -10 -6 -10 -22 -1 -134 -133 -388
-249 -478 -24 -19 -46 -33 -49 -31 -2 3 12 33 31 68 63 111 84 324 49 473
l-17 69 0 -119 c0 -124 -22 -261 -51 -317 -42 -81 -145 -159 -183 -138 -11 5
-62 10 -113 10 -90 0 -97 -2 -153 -36 -84 -50 -138 -97 -189 -162 -35 -47 -52
-59 -88 -69 -26 -7 -74 -35 -115 -67 -56 -44 -77 -69 -107 -125 -20 -39 -35
-71 -32 -71 3 0 40 25 82 55 43 30 93 59 113 64 174 42 241 52 281 41 93 -25
140 -101 140 -228 0 -84 -31 -135 -169 -277 -168 -173 -253 -289 -346 -472
-30 -59 -55 -111 -55 -117 0 -5 -14 -54 -32 -110 -31 -100 -31 -100 -21 -214
9 -99 16 -124 47 -185 49 -101 143 -243 206 -313 65 -73 205 -179 342 -261 82
-49 107 -69 122 -100 37 -72 129 -218 182 -288 190 -254 373 -396 742 -578
261 -130 461 -198 707 -243 50 -8 146 -28 215 -44 170 -38 270 -57 365 -69 44
-6 150 -20 235 -32 123 -17 206 -22 400 -23 l245 0 145 42 c212 63 456 145
444 149 -6 2 -76 -6 -154 -17 -269 -39 -375 -50 -500 -50 -227 0 -604 55 -560
81 152 91 201 122 290 182 103 69 164 116 246 187 22 19 100 82 173 140 186
147 267 235 385 423 54 86 102 157 106 157 10 0 25 -41 79 -205 63 -195 184
-471 241 -547 76 -104 166 -167 317 -224 87 -33 110 -29 42 6 -107 55 -172
163 -155 256 9 46 72 109 142 141 43 19 77 26 162 30 62 3 116 2 126 -4 15 -8
17 -35 19 -234 3 -216 4 -226 29 -284 71 -167 153 -250 317 -321 138 -59 257
-85 402 -86 137 -1 182 10 324 77 100 48 356 215 329 215 -6 0 -14 -4 -19 -9
-16 -15 -215 -120 -286 -151 -222 -95 -392 -95 -584 -1 -101 50 -159 99 -192
165 l-26 51 12 120 c19 196 60 465 82 534 25 79 65 143 167 263 43 51 110 143
147 203 110 177 302 585 276 585 -4 0 -31 -29 -60 -65 -84 -104 -320 -336
-386 -380 -33 -22 -87 -60 -120 -84 -77 -56 -191 -111 -230 -111 -34 0 -179
-37 -300 -77 -96 -31 -235 -99 -315 -153 -33 -22 -61 -40 -64 -40 -9 0 -72
130 -96 196 -83 224 -93 278 -79 407 10 95 61 200 123 253 118 101 465 241
665 269 179 25 393 47 453 48 31 0 55 4 52 9 -3 4 -15 8 -27 8 -12 0 -60 9
-107 21 -179 43 -368 61 -700 66 -300 5 -319 4 -400 -17 -182 -46 -284 -137
-424 -375 -26 -44 -67 -111 -91 -150 -25 -38 -64 -103 -87 -144 -122 -209
-298 -443 -429 -567 -68 -65 -171 -131 -256 -166 -99 -40 -189 -41 -309 -4
-82 27 -92 32 -220 132 -121 94 -138 115 -131 160 13 79 132 161 332 229 66
23 104 29 220 34 l140 6 -56 23 c-140 58 -289 68 -465 32 -312 -64 -538 -322
-454 -517 34 -81 178 -213 312 -288 59 -33 108 -63 108 -66 0 -8 -144 -54
-232 -74 -93 -21 -151 -20 -233 5 -38 12 -105 31 -148 42 -43 10 -115 35 -159
55 -153 67 -237 127 -405 290 -86 84 -129 136 -192 232 -47 73 -83 139 -86
160 -3 20 -11 56 -16 80 -7 33 -24 212 -29 302 0 4 -19 9 -42 13 -84 13 -148
29 -148 38 0 6 64 9 153 7 83 -2 199 1 257 5 76 6 154 3 280 -9 167 -16 393
-28 750 -41 310 -11 745 42 947 114 163 60 205 84 338 197 124 107 266 245
251 245 -5 0 -55 -25 -111 -55 -133 -71 -243 -106 -451 -144 -223 -40 -376
-42 -550 -7 -66 14 -171 32 -234 41 -230 32 -508 98 -624 149 -132 58 -225
172 -242 295 -9 69 27 143 99 204 62 53 66 55 192 102 174 65 427 97 605 76
98 -11 386 -85 545 -141 50 -17 122 -42 160 -54 39 -13 79 -27 90 -31 11 -4 1
5 -22 20 -159 99 -394 270 -466 340 -116 112 -138 236 -56 315 62 59 231 110
365 110 149 0 544 -105 791 -211 65 -28 188 -87 273 -131 85 -44 175 -91 200
-103 226 -111 498 -152 895 -134 246 11 313 22 464 76 70 24 153 53 186 65 56
19 106 48 60 34 -11 -3 -108 -17 -215 -32 -175 -24 -215 -26 -385 -20 -282 8
-449 40 -670 128 -118 46 -182 78 -290 145 -91 57 -383 256 -473 323 -33 25
-113 81 -178 125 -66 44 -136 96 -158 115 -42 38 -139 101 -230 150 -85 45
-167 103 -258 181 -194 168 -299 235 -568 366 l-75 37 -180 2 c-99 2 -200 -1
-224 -6z m-1801 -710 c0 -5 -15 -17 -32 -26 -53 -26 -98 -75 -98 -104 0 -35
-10 -43 -30 -25 -20 18 -62 22 -103 11 -23 -7 -26 -6 -21 8 8 21 159 120 204
133 46 14 80 15 80 3z"/>
<path d="M5080 7049 c-80 -10 -185 -41 -216 -64 -17 -13 -15 -14 26 -15 112
-1 391 -70 525 -130 59 -26 203 -123 280 -188 49 -42 234 -132 335 -163 61
-20 97 -24 190 -24 244 1 359 42 695 244 160 97 245 156 169 118 -58 -29 -280
-81 -394 -92 -41 -4 -88 -9 -105 -11 -47 -7 -340 -6 -445 2 -112 8 -224 45
-370 124 -181 97 -364 173 -466 194 -88 17 -110 18 -224 5z"/>
<path d="M7420 6335 c-47 -8 -170 -38 -275 -69 -324 -94 -395 -105 -655 -106
-213 0 -330 11 -415 41 -123 43 -241 91 -257 106 -36 32 -17 1 29 -48 79 -84
134 -117 343 -201 265 -108 314 -119 605 -142 125 -10 203 -12 255 -6 41 5
116 14 165 20 50 5 122 17 160 26 312 69 349 75 485 76 144 0 245 -20 370 -73
72 -31 238 -132 336 -204 44 -32 111 -82 149 -110 123 -91 268 -215 332 -283
83 -90 82 -64 -3 59 -22 30 -63 91 -93 135 -137 200 -260 331 -458 487 -162
127 -281 185 -538 264 -136 42 -369 54 -535 28z"/>
<path d="M9085 4491 c-48 -71 -298 -299 -352 -322 -27 -12 -120 -45 -208 -74
-208 -69 -252 -90 -359 -166 -131 -94 -238 -213 -296 -329 -48 -97 -122 -233
-164 -298 -13 -20 -35 -57 -49 -82 -14 -25 -60 -80 -103 -123 -88 -88 -168
-133 -292 -162 -69 -16 -92 -16 -182 1 l-25 4 25 -11 c14 -6 50 -23 80 -38 51
-24 68 -26 210 -29 171 -4 202 2 320 57 88 41 246 142 310 199 44 38 60 64
201 327 117 218 163 263 380 371 59 29 125 66 147 81 86 61 178 143 207 182
17 24 40 56 53 72 60 74 135 272 130 340 l-3 43 -30 -43z"/>
<path d="M5700 2657 c-3 -3 -44 -10 -90 -16 -178 -22 -387 -81 -544 -153 -121
-55 -252 -88 -356 -89 -42 0 -60 -3 -50 -9 30 -17 286 -42 480 -47 209 -5 179
-9 485 57 22 5 97 12 166 16 147 8 258 -5 404 -46 133 -38 440 -99 605 -120
113 -14 281 -12 415 6 199 26 200 30 13 32 -97 0 -196 6 -220 12 -159 42 -403
136 -593 230 -166 82 -217 99 -331 111 -120 13 -377 23 -384 16z"/>
</g>
</svg>
